<svg xmlns="http://www.w3.org/2000/svg" viewBox="0 0 24 20" shape-rendering="crispEdges"><rect x="21" y="3" width="2" height="1" fill="#0b1520"/><rect x="1" y="4" width="1" height="1" fill="#0b1520"/><rect x="7" y="4" width="10" height="1" fill="#0b1520"/><rect x="20" y="4" width="1" height="1" fill="#0b1520"/><rect x="21" y="4" width="2" height="1" fill="#b27f31"/><rect x="23" y="4" width="1" height="1" fill="#0b1520"/><rect x="0" y="5" width="1" height="1" fill="#0b1520"/><rect x="1" y="5" width="1" height="1" fill="#b27f31"/><rect x="2" y="5" width="2" height="1" fill="#0b1520"/><rect x="5" y="5" width="2" height="1" fill="#0b1520"/><rect x="7" y="5" width="3" height="1" fill="#243a55"/><rect x="10" y="5" width="7" height="1" fill="#132537"/><rect x="17" y="5" width="2" height="1" fill="#0b1520"/><rect x="20" y="5" width="1" height="1" fill="#0b1520"/><rect x="21" y="5" width="2" height="1" fill="#b27f31"/><rect x="23" y="5" width="1" height="1" fill="#0b1520"/><rect x="0" y="6" width="1" height="1" fill="#0b1520"/><rect x="1" y="6" width="3" height="1" fill="#b27f31"/><rect x="4" y="6" width="1" height="1" fill="#0b1520"/><rect x="5" y="6" width="2" height="1" fill="#243a55"/><rect x="7" y="6" width="1" height="1" fill="#f6efe0"/><rect x="8" y="6" width="7" height="1" fill="#132537"/><rect x="15" y="6" width="1" height="1" fill="#f6efe0"/><rect x="16" y="6" width="2" height="1" fill="#132537"/><rect x="18" y="6" width="1" height="1" fill="#0b1826"/><rect x="19" y="6" width="1" height="1" fill="#0b1520"/><rect x="20" y="6" width="1" height="1" fill="#b27f31"/><rect x="21" y="6" width="2" height="1" fill="#0b1520"/><rect x="0" y="7" width="1" height="1" fill="#0b1520"/><rect x="1" y="7" width="1" height="1" fill="#b27f31"/><rect x="2" y="7" width="3" height="1" fill="#0b1520"/><rect x="5" y="7" width="1" height="1" fill="#243a55"/><rect x="6" y="7" width="2" height="1" fill="#132537"/><rect x="8" y="7" width="1" height="1" fill="#f6efe0"/><rect x="9" y="7" width="5" height="1" fill="#132537"/><rect x="14" y="7" width="1" height="1" fill="#f6efe0"/><rect x="15" y="7" width="3" height="1" fill="#132537"/><rect x="18" y="7" width="1" height="1" fill="#0b1826"/><rect x="19" y="7" width="2" height="1" fill="#0b1520"/><rect x="1" y="8" width="1" height="1" fill="#0b1520"/><rect x="3" y="8" width="1" height="1" fill="#0b1520"/><rect x="4" y="8" width="1" height="1" fill="#243a55"/><rect x="5" y="8" width="2" height="1" fill="#132537"/><rect x="7" y="8" width="1" height="1" fill="#f6efe0"/><rect x="8" y="8" width="7" height="1" fill="#132537"/><rect x="15" y="8" width="1" height="1" fill="#f6efe0"/><rect x="16" y="8" width="3" height="1" fill="#132537"/><rect x="19" y="8" width="1" height="1" fill="#0b1826"/><rect x="20" y="8" width="1" height="1" fill="#0b1520"/><rect x="3" y="9" width="1" height="1" fill="#0b1520"/><rect x="4" y="9" width="7" height="1" fill="#132537"/><rect x="11" y="9" width="2" height="1" fill="#f6efe0"/><rect x="13" y="9" width="6" height="1" fill="#132537"/><rect x="19" y="9" width="1" height="1" fill="#0b1826"/><rect x="20" y="9" width="1" height="1" fill="#0b1520"/><rect x="3" y="10" width="1" height="1" fill="#0b1520"/><rect x="4" y="10" width="7" height="1" fill="#132537"/><rect x="11" y="10" width="2" height="1" fill="#f6efe0"/><rect x="13" y="10" width="6" height="1" fill="#132537"/><rect x="19" y="10" width="1" height="1" fill="#0b1826"/><rect x="20" y="10" width="1" height="1" fill="#0b1520"/><rect x="3" y="11" width="1" height="1" fill="#0b1520"/><rect x="4" y="11" width="2" height="1" fill="#d9b062"/><rect x="6" y="11" width="12" height="1" fill="#132537"/><rect x="18" y="11" width="2" height="1" fill="#d9b062"/><rect x="20" y="11" width="1" height="1" fill="#0b1520"/><rect x="3" y="12" width="1" height="1" fill="#0b1520"/><rect x="4" y="12" width="1" height="1" fill="#0b1826"/><rect x="5" y="12" width="1" height="1" fill="#132537"/><rect x="6" y="12" width="12" height="1" fill="#d9b062"/><rect x="18" y="12" width="1" height="1" fill="#132537"/><rect x="19" y="12" width="1" height="1" fill="#0b1826"/><rect x="20" y="12" width="1" height="1" fill="#0b1520"/><rect x="4" y="13" width="2" height="1" fill="#0b1520"/><rect x="6" y="13" width="12" height="1" fill="#0b1826"/><rect x="18" y="13" width="2" height="1" fill="#0b1520"/><rect x="6" y="14" width="12" height="1" fill="#0b1520"/><rect x="5" y="15" width="2" height="1" fill="#0b1520"/><rect x="7" y="15" width="1" height="1" fill="#b27f31"/><rect x="8" y="15" width="1" height="1" fill="#0b1520"/><rect x="15" y="15" width="1" height="1" fill="#0b1520"/><rect x="16" y="15" width="1" height="1" fill="#b27f31"/><rect x="17" y="15" width="2" height="1" fill="#0b1520"/><rect x="4" y="16" width="1" height="1" fill="#0b1520"/><rect x="5" y="16" width="2" height="1" fill="#b27f31"/><rect x="7" y="16" width="1" height="1" fill="#0b1520"/><rect x="16" y="16" width="1" height="1" fill="#0b1520"/><rect x="17" y="16" width="2" height="1" fill="#b27f31"/><rect x="19" y="16" width="1" height="1" fill="#0b1520"/><rect x="4" y="17" width="1" height="1" fill="#0b1520"/><rect x="5" y="17" width="2" height="1" fill="#b27f31"/><rect x="7" y="17" width="1" height="1" fill="#0b1520"/><rect x="16" y="17" width="1" height="1" fill="#0b1520"/><rect x="17" y="17" width="2" height="1" fill="#b27f31"/><rect x="19" y="17" width="1" height="1" fill="#0b1520"/><rect x="5" y="18" width="2" height="1" fill="#0b1520"/><rect x="17" y="18" width="2" height="1" fill="#0b1520"/></svg>
